M48
;Layer_Color=9474304
;FILE_FORMAT=4:3
METRIC,LZ
;TYPE=PLATED
T1F00S00C0.075
T2F00S00C0.150
T3F00S00C0.200
T5F00S00C0.700
%
T01
X001275Y0003625
X0015Y0001125
X0019375Y0005125
Y0005625
X00175Y0007375
T02
X000675Y00105
Y001225
X0020835Y0012585
X0020855Y0013855
X0009125Y0016625
T03
X001525Y0003375
X001625
X001725
Y0004375
Y0005375
X001625
Y0004375
X001525
Y0005375
X0023125Y000825
X002525Y0019125
T05
X0023Y0012585
Y0013855
Y0015125
Y0016395
Y0017665
Y0018935
M30
