G04*
G04 #@! TF.GenerationSoftware,Altium Limited,Altium Designer,19.0.14 (431)*
G04*
G04 Layer_Color=16711935*
%FSLAX43Y43*%
%MOMM*%
G71*
G01*
G75*
%ADD26C,0.100*%
D26*
X20566Y26835D02*
G03*
X24434Y26835I1934J-1335D01*
G01*
X7836Y26585D02*
G03*
X11704Y26585I1934J-1335D01*
G01*
X21400Y14525D02*
Y15975D01*
X23600Y14525D02*
Y15975D01*
X21400D02*
X23600D01*
X21400Y14525D02*
X23600D01*
X17577Y4150D02*
Y6350D01*
X18927Y4150D02*
Y6350D01*
X17577Y4150D02*
X18927D01*
X17577Y6350D02*
X18927D01*
X12926Y4150D02*
Y6350D01*
X14276Y4150D02*
Y6350D01*
X12926Y4150D02*
X14276D01*
X12926Y6350D02*
X14276D01*
X22028Y3800D02*
X23378D01*
X22028Y6000D02*
X23378D01*
X22028Y3800D02*
Y6000D01*
X23378Y3800D02*
Y6000D01*
X8075Y3800D02*
X9425D01*
X8075Y6000D02*
X9425D01*
X8075Y3800D02*
Y6000D01*
X9425Y3800D02*
Y6000D01*
X10900Y15275D02*
Y16725D01*
X13100Y15275D02*
Y16725D01*
X10900D02*
X13100D01*
X10900Y15275D02*
X13100D01*
X1230Y11540D02*
Y17000D01*
Y11540D02*
X3770D01*
Y17000D01*
X1230D02*
X3770D01*
X20566Y26835D02*
X24434D01*
X7836Y26585D02*
X11704D01*
M02*
