G04*
G04 #@! TF.GenerationSoftware,Altium Limited,Altium Designer,19.0.14 (431)*
G04*
G04 Layer_Color=65535*
%FSLAX43Y43*%
%MOMM*%
G71*
G01*
G75*
%ADD10C,0.200*%
%ADD11C,0.250*%
%ADD12C,0.254*%
D10*
X20566Y26835D02*
G03*
X24434Y26835I1934J-1335D01*
G01*
X7836Y26585D02*
G03*
X11704Y26585I1934J-1335D01*
G01*
X22450Y15875D02*
X22550D01*
X22450Y14625D02*
X22550D01*
X17652Y5200D02*
Y5300D01*
X18852Y5200D02*
Y5300D01*
X13001Y5200D02*
Y5300D01*
X14201Y5200D02*
Y5300D01*
X22153Y4850D02*
Y4950D01*
X23253Y4850D02*
Y4950D01*
X8200Y4850D02*
Y4950D01*
X9300Y4850D02*
Y4950D01*
X11950Y16625D02*
X12050D01*
X11950Y15375D02*
X12050D01*
X1230Y11540D02*
Y17000D01*
Y11540D02*
X3770D01*
Y17000D01*
X1230D02*
X3770D01*
X20566Y26835D02*
X24434D01*
X7836Y26585D02*
X11704D01*
D11*
X25575Y25500D02*
G03*
X25575Y25500I-125J0D01*
G01*
X12845Y25250D02*
G03*
X12845Y25250I-125J0D01*
G01*
D12*
X21985Y18318D02*
X21732Y18572D01*
X21224D01*
X20970Y18318D01*
Y17303D01*
X21224Y17049D01*
X21732D01*
X21985Y17303D01*
X22493Y17049D02*
X23001D01*
X22747D01*
Y18572D01*
X22493Y18318D01*
X17540Y7781D02*
Y9304D01*
X18302D01*
X18556Y9051D01*
Y8543D01*
X18302Y8289D01*
X17540D01*
X18048D02*
X18556Y7781D01*
X19825D02*
Y9304D01*
X19064Y8543D01*
X20079D01*
X12868Y7783D02*
Y9307D01*
X13630D01*
X13883Y9053D01*
Y8545D01*
X13630Y8291D01*
X12868D01*
X13376D02*
X13883Y7783D01*
X14391Y9053D02*
X14645Y9307D01*
X15153D01*
X15407Y9053D01*
Y8799D01*
X15153Y8545D01*
X14899D01*
X15153D01*
X15407Y8291D01*
Y8037D01*
X15153Y7783D01*
X14645D01*
X14391Y8037D01*
X22173Y7079D02*
Y8602D01*
X22934D01*
X23188Y8348D01*
Y7841D01*
X22934Y7587D01*
X22173D01*
X22680D02*
X23188Y7079D01*
X24712D02*
X23696D01*
X24712Y8094D01*
Y8348D01*
X24458Y8602D01*
X23950D01*
X23696Y8348D01*
X8224Y7077D02*
Y8601D01*
X8986D01*
X9240Y8347D01*
Y7839D01*
X8986Y7585D01*
X8224D01*
X8732D02*
X9240Y7077D01*
X9748D02*
X10256D01*
X10002D01*
Y8601D01*
X9748Y8347D01*
X11494Y19046D02*
X11240Y19300D01*
X10732D01*
X10478Y19046D01*
Y18030D01*
X10732Y17776D01*
X11240D01*
X11494Y18030D01*
X13017Y17776D02*
X12002D01*
X13017Y18792D01*
Y19046D01*
X12763Y19300D01*
X12256D01*
X12002Y19046D01*
X1243Y18017D02*
Y19540D01*
X2004D01*
X2258Y19286D01*
Y18778D01*
X2004Y18524D01*
X1243D01*
X2766Y18017D02*
X3274D01*
X3020D01*
Y19540D01*
X2766Y19286D01*
X21296Y27988D02*
Y29004D01*
X21042Y29258D01*
X20534D01*
X20280Y29004D01*
Y27988D01*
X20534Y27734D01*
X21042D01*
X20788Y28242D02*
X21296Y27734D01*
X21042D02*
X21296Y27988D01*
X22819Y27734D02*
X21804D01*
X22819Y28750D01*
Y29004D01*
X22565Y29258D01*
X22057D01*
X21804Y29004D01*
X8565Y27729D02*
Y28745D01*
X8311Y28999D01*
X7803D01*
X7549Y28745D01*
Y27729D01*
X7803Y27475D01*
X8311D01*
X8057Y27983D02*
X8565Y27475D01*
X8311D02*
X8565Y27729D01*
X9073Y27475D02*
X9580D01*
X9326D01*
Y28999D01*
X9073Y28745D01*
M02*
