G04*
G04 #@! TF.GenerationSoftware,Altium Limited,Altium Designer,19.0.14 (431)*
G04*
G04 Layer_Color=255*
%FSLAX43Y43*%
%MOMM*%
G71*
G01*
G75*
%ADD16R,0.500X0.800*%
%ADD17R,0.600X0.600*%
%ADD18R,0.450X0.550*%
%ADD19R,0.650X0.700*%
%ADD20R,0.720X0.720*%
%ADD21R,0.620X0.620*%
%ADD22R,1.350X0.400*%
%ADD23R,1.900X1.900*%
%ADD24R,1.400X1.600*%
%ADD42R,0.300X0.300*%
%ADD43R,0.300X0.500*%
%ADD44R,0.300X0.300*%
%ADD45R,0.500X0.300*%
%ADD46R,3.300X3.300*%
%ADD47O,1.600X0.900*%
%ADD48R,1.050X1.050*%
%ADD49C,1.050*%
D16*
X21500Y5500D02*
D03*
Y7500D02*
D03*
X23125Y7375D02*
D03*
Y5375D02*
D03*
D17*
X27250Y14225D02*
D03*
Y15275D02*
D03*
Y18600D02*
D03*
Y19650D02*
D03*
D18*
Y17125D02*
D03*
X26350D02*
D03*
D19*
X7759Y15750D02*
D03*
X9109D02*
D03*
D20*
X8750Y14325D02*
D03*
X7750D02*
D03*
D21*
X8700Y12825D02*
D03*
X7800D02*
D03*
X8700Y11125D02*
D03*
X7800D02*
D03*
D22*
X4000Y13475D02*
D03*
Y12825D02*
D03*
Y12175D02*
D03*
Y11525D02*
D03*
Y10875D02*
D03*
D23*
X1325Y13375D02*
D03*
Y10975D02*
D03*
D24*
X3775Y15375D02*
D03*
Y8975D02*
D03*
D42*
X14500Y2175D02*
D03*
X18000D02*
D03*
Y6575D02*
D03*
X14500D02*
D03*
D43*
X15000Y2275D02*
D03*
X15500D02*
D03*
X16000D02*
D03*
X16500D02*
D03*
X17000D02*
D03*
X17500D02*
D03*
Y6475D02*
D03*
X17000D02*
D03*
X16500D02*
D03*
X16000D02*
D03*
X15500D02*
D03*
X15000D02*
D03*
D44*
X18450Y2625D02*
D03*
Y6125D02*
D03*
X14050D02*
D03*
Y2625D02*
D03*
D45*
X18350Y3125D02*
D03*
Y3625D02*
D03*
Y4125D02*
D03*
Y4625D02*
D03*
Y5125D02*
D03*
Y5625D02*
D03*
X14150D02*
D03*
Y5125D02*
D03*
Y4625D02*
D03*
Y4125D02*
D03*
Y3625D02*
D03*
Y3125D02*
D03*
D46*
X16250Y4375D02*
D03*
D47*
X1325Y8875D02*
D03*
Y15475D02*
D03*
D48*
X23000Y12585D02*
D03*
D49*
Y15125D02*
D03*
Y13855D02*
D03*
Y16395D02*
D03*
Y17665D02*
D03*
Y18935D02*
D03*
M02*
