G04*
G04 #@! TF.GenerationSoftware,Altium Limited,Altium Designer,19.0.14 (431)*
G04*
G04 Layer_Color=8388736*
%FSLAX43Y43*%
%MOMM*%
G71*
G01*
G75*
%ADD25R,0.703X1.003*%
%ADD26R,0.803X0.803*%
%ADD27R,0.653X0.753*%
%ADD28R,0.853X0.903*%
%ADD29R,0.923X0.923*%
%ADD30R,0.823X0.823*%
%ADD31R,1.553X0.603*%
%ADD32R,2.103X2.103*%
%ADD33R,1.603X1.803*%
%ADD34R,0.420X0.620*%
%ADD35R,0.620X0.420*%
%ADD36R,3.420X3.420*%
%ADD37O,1.803X1.103*%
%ADD38R,1.253X1.253*%
%ADD39C,1.253*%
%ADD40C,0.453*%
%ADD41C,0.553*%
G36*
X14460Y2650D02*
X14225Y2415D01*
X13840Y2415D01*
Y2835D01*
X14460D01*
X14460Y2650D01*
D02*
G37*
G36*
X14710Y1965D02*
X14290D01*
X14290Y2350D01*
X14525Y2585D01*
X14710Y2585D01*
Y1965D01*
D02*
G37*
G36*
Y6165D02*
X14525Y6165D01*
X14290Y6400D01*
X14290Y6785D01*
X14710D01*
Y6165D01*
D02*
G37*
G36*
X14225Y6335D02*
X14460Y6100D01*
X14460Y5915D01*
X13840D01*
Y6335D01*
X14225Y6335D01*
D02*
G37*
G36*
X18660Y2415D02*
X18275Y2415D01*
X18040Y2650D01*
X18040Y2835D01*
X18660D01*
Y2415D01*
D02*
G37*
G36*
X17975Y2585D02*
X18210Y2350D01*
X18210Y1965D01*
X17790D01*
Y2585D01*
X17975Y2585D01*
D02*
G37*
G36*
X18210Y6400D02*
X17975Y6165D01*
X17790Y6165D01*
Y6785D01*
X18210D01*
X18210Y6400D01*
D02*
G37*
G36*
X18660Y5915D02*
X18040D01*
X18040Y6100D01*
X18275Y6335D01*
X18660Y6335D01*
Y5915D01*
D02*
G37*
D25*
X21500Y5500D02*
D03*
Y7500D02*
D03*
X23125Y7375D02*
D03*
Y5375D02*
D03*
D26*
X27250Y14225D02*
D03*
Y15275D02*
D03*
Y18600D02*
D03*
Y19650D02*
D03*
D27*
Y17125D02*
D03*
X26350D02*
D03*
D28*
X7759Y15750D02*
D03*
X9109D02*
D03*
D29*
X8750Y14325D02*
D03*
X7750D02*
D03*
D30*
X8700Y12825D02*
D03*
X7800D02*
D03*
X8700Y11125D02*
D03*
X7800D02*
D03*
D31*
X4000Y13475D02*
D03*
Y12825D02*
D03*
Y12175D02*
D03*
Y11525D02*
D03*
Y10875D02*
D03*
D32*
X1325Y13375D02*
D03*
Y10975D02*
D03*
D33*
X3775Y15375D02*
D03*
Y8975D02*
D03*
D34*
X15000Y2275D02*
D03*
X15500D02*
D03*
X16000D02*
D03*
X16500D02*
D03*
X17000D02*
D03*
X17500D02*
D03*
Y6475D02*
D03*
X17000D02*
D03*
X16500D02*
D03*
X16000D02*
D03*
X15500D02*
D03*
X15000D02*
D03*
D35*
X18350Y3125D02*
D03*
Y3625D02*
D03*
Y4125D02*
D03*
Y4625D02*
D03*
Y5125D02*
D03*
Y5625D02*
D03*
X14150D02*
D03*
Y5125D02*
D03*
Y4625D02*
D03*
Y4125D02*
D03*
Y3625D02*
D03*
Y3125D02*
D03*
D36*
X16250Y4375D02*
D03*
D37*
X1325Y8875D02*
D03*
Y15475D02*
D03*
D38*
X23000Y12585D02*
D03*
D39*
Y15125D02*
D03*
Y13855D02*
D03*
Y16395D02*
D03*
Y17665D02*
D03*
Y18935D02*
D03*
D40*
X15000Y1125D02*
D03*
X12750Y3625D02*
D03*
X19375Y5625D02*
D03*
Y5125D02*
D03*
X17500Y7375D02*
D03*
D41*
X20835Y12585D02*
D03*
X20855Y13855D02*
D03*
X9125Y16625D02*
D03*
X6750Y12250D02*
D03*
Y10500D02*
D03*
M02*
