G04*
G04 #@! TF.GenerationSoftware,Altium Limited,Altium Designer,19.0.14 (431)*
G04*
G04 Layer_Color=8421504*
%FSLAX43Y43*%
%MOMM*%
G71*
G01*
G75*
%ADD13R,0.300X0.600*%
%ADD14R,0.600X0.300*%
%ADD15R,0.300X0.600*%
%ADD16R,0.500X0.800*%
%ADD17R,0.600X0.600*%
%ADD18R,0.450X0.550*%
%ADD19R,0.650X0.700*%
%ADD20R,0.720X0.720*%
%ADD21R,0.620X0.620*%
%ADD22R,1.350X0.400*%
%ADD23R,1.900X1.900*%
%ADD24R,1.400X1.600*%
G36*
X14400Y2775D02*
Y2675D01*
X14200Y2475D01*
X13800D01*
Y2775D01*
X14400Y2775D01*
D02*
G37*
G36*
X14650Y1925D02*
X14350D01*
Y2325D01*
X14550Y2525D01*
X14650D01*
X14650Y1925D01*
D02*
G37*
G36*
X14650Y6225D02*
X14550D01*
X14350Y6425D01*
X14351Y6825D01*
X14649D01*
X14650Y6225D01*
D02*
G37*
G36*
X14400Y6075D02*
Y5975D01*
X13800Y5975D01*
Y6275D01*
X14200D01*
X14400Y6075D01*
D02*
G37*
G36*
X18700Y2475D02*
X18300D01*
X18100Y2675D01*
Y2775D01*
X18700Y2775D01*
Y2475D01*
D02*
G37*
G36*
X18150Y2325D02*
Y1925D01*
X17850D01*
X17850Y2525D01*
X17950D01*
X18150Y2325D01*
D02*
G37*
G36*
Y6425D02*
X17950Y6225D01*
X17850D01*
X17850Y6825D01*
X18150D01*
Y6425D01*
D02*
G37*
G36*
X18700Y5975D02*
X18100Y5975D01*
Y6075D01*
X18300Y6275D01*
X18700D01*
Y5975D01*
D02*
G37*
D13*
X15000Y4375D02*
D03*
Y3375D02*
D03*
Y5375D02*
D03*
X15500Y4375D02*
D03*
Y5375D02*
D03*
Y3375D02*
D03*
X17000Y4375D02*
D03*
Y3375D02*
D03*
Y5375D02*
D03*
X17500Y4375D02*
D03*
Y5375D02*
D03*
Y3375D02*
D03*
X16500Y3375D02*
D03*
Y5375D02*
D03*
Y4375D02*
D03*
X16000Y5375D02*
D03*
Y3375D02*
D03*
Y4375D02*
D03*
D14*
X14100Y3125D02*
D03*
X14100Y3625D02*
D03*
X14100Y4125D02*
D03*
Y4625D02*
D03*
X14100Y5125D02*
D03*
Y5625D02*
D03*
X18400Y3125D02*
D03*
X18400Y3625D02*
D03*
X18400Y4125D02*
D03*
Y4625D02*
D03*
X18400Y5125D02*
D03*
Y5625D02*
D03*
D15*
X15000Y2225D02*
D03*
X15500Y2225D02*
D03*
X16000Y2225D02*
D03*
X16500D02*
D03*
X17000Y2225D02*
D03*
X17500D02*
D03*
X17500Y6525D02*
D03*
X17000D02*
D03*
X16500Y6525D02*
D03*
X16000D02*
D03*
X15500Y6525D02*
D03*
X15000Y6525D02*
D03*
D16*
X21500Y5500D02*
D03*
Y7500D02*
D03*
X23125Y7375D02*
D03*
Y5375D02*
D03*
D17*
X27250Y14225D02*
D03*
Y15275D02*
D03*
Y18600D02*
D03*
Y19650D02*
D03*
D18*
Y17125D02*
D03*
X26350D02*
D03*
D19*
X7759Y15750D02*
D03*
X9109D02*
D03*
D20*
X8750Y14325D02*
D03*
X7750D02*
D03*
D21*
X8700Y12825D02*
D03*
X7800D02*
D03*
X8700Y11125D02*
D03*
X7800D02*
D03*
D22*
X4000Y13475D02*
D03*
Y12825D02*
D03*
Y12175D02*
D03*
Y11525D02*
D03*
Y10875D02*
D03*
D23*
X1325Y13375D02*
D03*
Y10975D02*
D03*
D24*
X3775Y15375D02*
D03*
Y8975D02*
D03*
M02*
