G04*
G04 #@! TF.GenerationSoftware,Altium Limited,Altium Designer,19.0.14 (431)*
G04*
G04 Layer_Physical_Order=1*
G04 Layer_Color=255*
%FSLAX43Y43*%
%MOMM*%
G71*
G01*
G75*
%ADD13C,0.254*%
%ADD17R,0.635X0.660*%
%ADD18R,0.660X0.635*%
%ADD19R,0.950X0.700*%
%ADD20R,0.500X0.800*%
%ADD21R,1.350X0.400*%
%ADD22R,1.900X1.900*%
%ADD23R,1.400X1.600*%
%ADD39R,0.300X0.300*%
%ADD40R,0.300X0.500*%
%ADD41R,0.300X0.300*%
%ADD42R,0.500X0.300*%
%ADD43R,3.300X3.300*%
%ADD44C,1.050*%
%ADD45R,1.050X1.050*%
%ADD46O,1.600X0.900*%
%ADD47C,0.500*%
%ADD48C,0.250*%
%ADD49C,0.350*%
G36*
X26678Y20125D02*
Y19735D01*
X27822D01*
Y20125D01*
X28000D01*
X28000Y-0D01*
X0Y0D01*
X-0Y20125D01*
X26678Y20125D01*
D02*
G37*
%LPC*%
G36*
X23127Y19704D02*
Y19062D01*
X23769D01*
X23759Y19138D01*
X23680Y19328D01*
X23556Y19491D01*
X23393Y19615D01*
X23203Y19694D01*
X23127Y19704D01*
D02*
G37*
G36*
X22873D02*
X22797Y19694D01*
X22607Y19615D01*
X22444Y19491D01*
X22320Y19328D01*
X22241Y19138D01*
X22231Y19062D01*
X22873D01*
Y19704D01*
D02*
G37*
G36*
X27822Y19481D02*
X26678D01*
Y19023D01*
X26733D01*
Y18112D01*
X26933D01*
Y17642D01*
X25787D01*
Y17464D01*
X25436D01*
X25301Y17555D01*
X25125Y17590D01*
X24949Y17555D01*
X24814Y17464D01*
X24675D01*
X24238Y17901D01*
X24130Y17973D01*
X24003Y17998D01*
X23647D01*
X23633Y18031D01*
X23517Y18182D01*
X23490Y18202D01*
Y18329D01*
X23556Y18379D01*
X23680Y18542D01*
X23759Y18732D01*
X23769Y18808D01*
X23000D01*
X22231D01*
X22241Y18732D01*
X22320Y18542D01*
X22444Y18379D01*
X22510Y18329D01*
Y18202D01*
X22483Y18182D01*
X22367Y18031D01*
X22294Y17854D01*
X22269Y17665D01*
X22294Y17476D01*
X22367Y17299D01*
X22483Y17148D01*
X22532Y17110D01*
Y16950D01*
X22483Y16912D01*
X22367Y16761D01*
X22353Y16728D01*
X20835D01*
X20707Y16703D01*
X20599Y16631D01*
X19409Y15441D01*
X19337Y15332D01*
X19311Y15205D01*
Y9663D01*
X17949Y8301D01*
X15130D01*
X15003Y8276D01*
X14895Y8203D01*
X12060Y5369D01*
X11988Y5261D01*
X11963Y5133D01*
Y3437D01*
X11988Y3309D01*
X12060Y3201D01*
X13522Y1739D01*
X13630Y1667D01*
X13758Y1642D01*
X14523D01*
X14540Y1645D01*
X14667Y1541D01*
Y1125D01*
X14692Y997D01*
X14764Y889D01*
X14872Y817D01*
X15000Y792D01*
X15128Y817D01*
X15236Y889D01*
X15308Y997D01*
X15333Y1125D01*
Y1825D01*
X15596D01*
Y1771D01*
X15873D01*
Y2275D01*
X16127D01*
Y1771D01*
X16404D01*
Y1825D01*
X17650D01*
Y1825D01*
X18350D01*
Y2275D01*
X18800D01*
Y2792D01*
X20875D01*
X21003Y2817D01*
X21111Y2889D01*
X22990Y4769D01*
X23002D01*
X23034Y4775D01*
X23575D01*
Y5975D01*
X22675D01*
Y5377D01*
X22616Y5338D01*
X20737Y3458D01*
X20096D01*
X20047Y3576D01*
X21372Y4900D01*
X21950D01*
Y6100D01*
X21050D01*
Y5522D01*
X19487Y3958D01*
X18800D01*
Y4792D01*
X19375D01*
X19503Y4817D01*
X19611Y4889D01*
X19683Y4997D01*
X19708Y5125D01*
X19683Y5253D01*
X19668Y5275D01*
X19618Y5375D01*
X19668Y5475D01*
X19683Y5497D01*
X19708Y5625D01*
X19683Y5753D01*
X19611Y5861D01*
X19503Y5933D01*
X19375Y5958D01*
X18935D01*
X18882Y6085D01*
X19881Y7084D01*
X19953Y7192D01*
X19978Y7320D01*
Y9525D01*
Y15067D01*
X20973Y16062D01*
X22353D01*
X22367Y16029D01*
X22483Y15878D01*
X22532Y15840D01*
Y15680D01*
X22483Y15642D01*
X22367Y15491D01*
X22294Y15314D01*
X22269Y15125D01*
X22294Y14936D01*
X22367Y14759D01*
X22483Y14608D01*
X22532Y14570D01*
Y14410D01*
X22483Y14372D01*
X22367Y14221D01*
X22353Y14188D01*
X21031D01*
X21001Y14208D01*
X20855Y14237D01*
X20709Y14208D01*
X20585Y14125D01*
X20502Y14001D01*
X20473Y13855D01*
X20502Y13709D01*
X20585Y13585D01*
X20709Y13502D01*
X20855Y13473D01*
X21001Y13502D01*
X21031Y13522D01*
X22325D01*
X22390Y13418D01*
X22335Y13310D01*
X22275D01*
Y12918D01*
X21011D01*
X20981Y12938D01*
X20835Y12967D01*
X20689Y12938D01*
X20565Y12855D01*
X20482Y12731D01*
X20453Y12585D01*
X20482Y12439D01*
X20565Y12315D01*
X20689Y12232D01*
X20835Y12203D01*
X20981Y12232D01*
X21011Y12252D01*
X22275D01*
Y11860D01*
X23519D01*
Y10140D01*
X21478Y8100D01*
X21050D01*
Y6900D01*
X21950D01*
Y7628D01*
X22542Y8221D01*
X22680Y8179D01*
X22696Y8102D01*
X22675Y7975D01*
X22675D01*
Y6775D01*
X23575D01*
Y7975D01*
X23575Y7975D01*
X23554Y8102D01*
X23584Y8250D01*
X23549Y8426D01*
X23449Y8574D01*
X23301Y8674D01*
X23196Y8695D01*
X23154Y8833D01*
X24088Y9766D01*
X24160Y9874D01*
X24185Y10002D01*
Y14273D01*
X24160Y14401D01*
X24088Y14509D01*
X23693Y14904D01*
X23706Y14936D01*
X23731Y15125D01*
X23706Y15314D01*
X23633Y15491D01*
X23517Y15642D01*
X23468Y15680D01*
Y15840D01*
X23517Y15878D01*
X23633Y16029D01*
X23647Y16062D01*
X26917D01*
Y15647D01*
X26733D01*
Y14736D01*
X26678D01*
Y14279D01*
X27250D01*
X27822D01*
Y14736D01*
X27767D01*
Y15647D01*
X27583D01*
Y16395D01*
X27583Y16395D01*
Y16608D01*
X27813D01*
Y17642D01*
X27600D01*
Y18112D01*
X27767D01*
Y19023D01*
X27822D01*
Y19481D01*
D02*
G37*
G36*
X4729Y16429D02*
X3902D01*
Y15502D01*
X4729D01*
Y16429D01*
D02*
G37*
G36*
X3648D02*
X2821D01*
Y15502D01*
X3648D01*
Y16429D01*
D02*
G37*
G36*
X8250Y16025D02*
X6900D01*
Y14925D01*
X8250D01*
Y15041D01*
X8285Y15069D01*
X8377Y15117D01*
X8500Y15093D01*
X8646Y15122D01*
X8770Y15205D01*
X8853Y15329D01*
X8882Y15475D01*
X8853Y15621D01*
X8770Y15745D01*
X8646Y15828D01*
X8500Y15857D01*
X8377Y15833D01*
X8285Y15881D01*
X8250Y15909D01*
Y16025D01*
D02*
G37*
G36*
X1675Y16131D02*
X975D01*
X805Y16108D01*
X647Y16043D01*
X511Y15939D01*
X407Y15803D01*
X342Y15645D01*
X319Y15475D01*
X342Y15305D01*
X407Y15147D01*
X511Y15011D01*
X647Y14907D01*
X805Y14842D01*
X975Y14819D01*
X1675D01*
X1845Y14842D01*
X2003Y14907D01*
X2139Y15011D01*
X2243Y15147D01*
X2308Y15305D01*
X2331Y15475D01*
X2308Y15645D01*
X2243Y15803D01*
X2139Y15939D01*
X2003Y16043D01*
X1845Y16108D01*
X1675Y16131D01*
D02*
G37*
G36*
X4729Y15248D02*
X3902D01*
Y14321D01*
X4729D01*
Y15248D01*
D02*
G37*
G36*
X3648D02*
X2821D01*
Y14321D01*
X3648D01*
Y15248D01*
D02*
G37*
G36*
X9317Y14696D02*
X8860D01*
Y14252D01*
X9317D01*
Y14696D01*
D02*
G37*
G36*
X6600Y16025D02*
X5250D01*
Y14925D01*
X5667D01*
Y13808D01*
X4875D01*
Y13875D01*
X3125D01*
Y13075D01*
Y12425D01*
Y11329D01*
X3071D01*
Y11002D01*
X4000D01*
X4929D01*
Y11329D01*
X4875D01*
Y11842D01*
X5312D01*
X6264Y10889D01*
X6372Y10817D01*
X6417Y10808D01*
Y10676D01*
X6397Y10646D01*
X6368Y10500D01*
X6397Y10354D01*
X6480Y10230D01*
X6604Y10147D01*
X6750Y10118D01*
X6896Y10147D01*
X7020Y10230D01*
X7103Y10354D01*
X7129Y10486D01*
X7132Y10500D01*
X7223Y10607D01*
X7240Y10608D01*
X7350Y10608D01*
X8148D01*
Y10554D01*
X8606D01*
Y11125D01*
X8733D01*
Y11252D01*
X9317D01*
Y11696D01*
X9066D01*
Y12304D01*
X9317D01*
Y12748D01*
X8733D01*
Y13002D01*
X9317D01*
Y13446D01*
X9317D01*
Y13554D01*
X9317D01*
Y13998D01*
X8733D01*
Y14125D01*
X8606D01*
Y14696D01*
X8148D01*
Y14642D01*
X7237D01*
Y14458D01*
X6875D01*
X6747Y14433D01*
X6639Y14361D01*
X6451Y14172D01*
X6333Y14221D01*
Y14925D01*
X6600D01*
Y16025D01*
D02*
G37*
G36*
X27822Y14025D02*
X27377D01*
Y13568D01*
X27822D01*
Y14025D01*
D02*
G37*
G36*
X27123D02*
X26678D01*
Y13568D01*
X27123D01*
Y14025D01*
D02*
G37*
G36*
X9317Y10998D02*
X8860D01*
Y10554D01*
X9317D01*
Y10998D01*
D02*
G37*
G36*
X4929Y10748D02*
X4127D01*
Y10421D01*
X4929D01*
Y10748D01*
D02*
G37*
G36*
X3873D02*
X3071D01*
Y10421D01*
X3873D01*
Y10748D01*
D02*
G37*
G36*
X2475Y14525D02*
X175D01*
Y12252D01*
X175Y12225D01*
Y12125D01*
X175Y12098D01*
Y9825D01*
X2475D01*
Y12098D01*
X2475Y12125D01*
Y12225D01*
X2475Y12252D01*
Y14525D01*
D02*
G37*
G36*
X1675Y9531D02*
X975D01*
X805Y9508D01*
X647Y9443D01*
X511Y9339D01*
X407Y9203D01*
X342Y9045D01*
X319Y8875D01*
X342Y8705D01*
X407Y8547D01*
X511Y8411D01*
X647Y8307D01*
X805Y8242D01*
X975Y8219D01*
X1675D01*
X1845Y8242D01*
X2003Y8307D01*
X2139Y8411D01*
X2243Y8547D01*
X2308Y8705D01*
X2331Y8875D01*
X2308Y9045D01*
X2243Y9203D01*
X2139Y9339D01*
X2003Y9443D01*
X1845Y9508D01*
X1675Y9531D01*
D02*
G37*
G36*
X4675Y9975D02*
X2875D01*
Y7975D01*
X4675D01*
Y9975D01*
D02*
G37*
%LPD*%
G36*
X17950Y6225D02*
X17850D01*
Y6425D01*
X18150D01*
X17950Y6225D01*
D02*
G37*
G36*
X14650D02*
X14550D01*
X14350Y6425D01*
X14650D01*
Y6225D01*
D02*
G37*
G36*
X18300Y5975D02*
X18100Y5975D01*
Y6075D01*
X18300Y6275D01*
X18300Y5975D01*
D02*
G37*
G36*
X14400Y6075D02*
Y5975D01*
X14200D01*
Y6275D01*
X14400Y6075D01*
D02*
G37*
G36*
X13646Y5846D02*
Y5752D01*
X14150D01*
Y5498D01*
X13646D01*
Y5221D01*
X13700D01*
Y3958D01*
X12750D01*
X12728Y3954D01*
X12629Y4035D01*
Y4995D01*
X13529Y5895D01*
X13646Y5846D01*
D02*
G37*
G36*
X18300Y2475D02*
X18100Y2675D01*
Y2775D01*
X18300D01*
Y2475D01*
D02*
G37*
G36*
X14400Y2675D02*
X14200Y2475D01*
Y2775D01*
X14400D01*
Y2675D01*
D02*
G37*
G36*
X18150Y2325D02*
X17850D01*
Y2525D01*
X17950D01*
X18150Y2325D01*
D02*
G37*
G36*
X14650D02*
X14350D01*
X14550Y2525D01*
X14650D01*
Y2325D01*
D02*
G37*
D13*
X27250Y16395D02*
Y17125D01*
X27266Y17141D02*
X27283Y17125D01*
X27266Y17141D02*
Y18626D01*
X27250Y18642D02*
X27266Y18626D01*
X27250Y16395D02*
X27250Y16395D01*
X27250Y15117D02*
Y16395D01*
X23000Y16395D02*
X27250D01*
X20835D02*
X23000D01*
X8733Y12875D02*
Y14125D01*
Y11125D02*
Y12875D01*
X23125Y7375D02*
Y8250D01*
Y7375D02*
X23125Y7375D01*
X18350Y5125D02*
X18350Y5125D01*
X17500Y6475D02*
Y7375D01*
X15000Y1125D02*
Y2275D01*
X14500Y1998D02*
Y2175D01*
X18450Y6125D02*
X19645Y7320D01*
X14500Y1998D02*
X14523Y1975D01*
X18088Y7968D02*
X19645Y9525D01*
X18350Y5625D02*
X18350Y5625D01*
X13758Y1975D02*
X14523D01*
X19645Y7320D02*
Y9525D01*
X12750Y3625D02*
X14150D01*
X14150Y3625D01*
X12296Y3437D02*
Y5133D01*
X17000Y6475D02*
X17500D01*
X12296Y5133D02*
X15130Y7968D01*
X18350Y5625D02*
X19375D01*
X15130Y7968D02*
X18088D01*
X12296Y3437D02*
X13758Y1975D01*
X18350Y5125D02*
X19375D01*
X7425Y15475D02*
X8500D01*
X6000Y13475D02*
X6225D01*
X4000D02*
X6000D01*
Y15400D01*
X6075Y15475D01*
X6875Y14125D02*
X7767D01*
X6225Y13475D02*
X6875Y14125D01*
X6750Y12825D02*
X7767D01*
X6750Y12250D02*
Y12825D01*
Y11125D02*
X7767D01*
X7767Y11125D01*
X21500Y7650D02*
X23852Y10002D01*
X21500Y7500D02*
Y7650D01*
X23852Y10002D02*
Y14273D01*
X18350Y3125D02*
X20875D01*
X22852Y5102D01*
X23002D01*
X23125Y5225D01*
Y5375D01*
X23000Y15125D02*
X23852Y14273D01*
X19625Y3625D02*
X21500Y5500D01*
X24003Y17665D02*
X24537Y17131D01*
X19645Y9525D02*
Y15205D01*
X20835Y16395D01*
X18350Y3625D02*
X19625D01*
X20835Y12585D02*
X23000D01*
X20855Y13855D02*
X23000D01*
X6500Y11125D02*
X6750D01*
Y10500D02*
Y11125D01*
X4000Y12825D02*
X6750D01*
X5450Y12175D02*
X6500Y11125D01*
X4000Y12175D02*
X5450D01*
X26350Y17125D02*
Y17175D01*
X23000Y17665D02*
X24003D01*
X24537Y17131D02*
X26344D01*
X26350Y17125D01*
D17*
X27250Y15117D02*
D03*
Y14152D02*
D03*
Y18642D02*
D03*
Y19608D02*
D03*
D18*
X27283Y17125D02*
D03*
X26317D02*
D03*
X8733Y11125D02*
D03*
X7767D02*
D03*
X8733Y12875D02*
D03*
X7767D02*
D03*
X8733Y14125D02*
D03*
X7767D02*
D03*
D19*
X7575Y15475D02*
D03*
X5925D02*
D03*
D20*
X21500Y7500D02*
D03*
Y5500D02*
D03*
X23125Y7375D02*
D03*
Y5375D02*
D03*
D21*
X4000Y13475D02*
D03*
Y12825D02*
D03*
Y12175D02*
D03*
Y11525D02*
D03*
Y10875D02*
D03*
D22*
X1325Y13375D02*
D03*
Y10975D02*
D03*
D23*
X3775Y15375D02*
D03*
Y8975D02*
D03*
D39*
X14500Y2175D02*
D03*
X18000D02*
D03*
Y6575D02*
D03*
X14500D02*
D03*
D40*
X15000Y2275D02*
D03*
X15500D02*
D03*
X16000D02*
D03*
X16500D02*
D03*
X17000D02*
D03*
X17500D02*
D03*
Y6475D02*
D03*
X17000D02*
D03*
X16500D02*
D03*
X16000D02*
D03*
X15500D02*
D03*
X15000D02*
D03*
D41*
X18450Y2625D02*
D03*
Y6125D02*
D03*
X14050D02*
D03*
Y2625D02*
D03*
D42*
X18350Y3125D02*
D03*
Y3625D02*
D03*
Y4125D02*
D03*
Y4625D02*
D03*
Y5125D02*
D03*
Y5625D02*
D03*
X14150D02*
D03*
Y5125D02*
D03*
Y4625D02*
D03*
Y4125D02*
D03*
Y3625D02*
D03*
Y3125D02*
D03*
D43*
X16250Y4375D02*
D03*
D44*
X23000Y18935D02*
D03*
Y17665D02*
D03*
Y16395D02*
D03*
Y13855D02*
D03*
Y15125D02*
D03*
D45*
Y12585D02*
D03*
D46*
X1325Y8875D02*
D03*
Y15475D02*
D03*
D47*
X25125Y17131D02*
D03*
X23125Y8250D02*
D03*
X15250Y3375D02*
D03*
Y4375D02*
D03*
Y5375D02*
D03*
X16250Y3375D02*
D03*
Y4375D02*
D03*
Y5375D02*
D03*
X17250Y3375D02*
D03*
Y4375D02*
D03*
Y5375D02*
D03*
D48*
X19375Y5625D02*
D03*
X15000Y1125D02*
D03*
X12750Y3625D02*
D03*
X17500Y7375D02*
D03*
X19375Y5125D02*
D03*
D49*
X8500Y15475D02*
D03*
X6750Y12250D02*
D03*
X20835Y12585D02*
D03*
X20855Y13855D02*
D03*
X6750Y10500D02*
D03*
M02*
