G04*
G04 #@! TF.GenerationSoftware,Altium Limited,Altium Designer,19.0.14 (431)*
G04*
G04 Layer_Physical_Order=2*
G04 Layer_Color=16711680*
%FSLAX43Y43*%
%MOMM*%
G71*
G01*
G75*
%ADD13C,0.254*%
%ADD44C,1.050*%
%ADD45R,1.050X1.050*%
%ADD46O,1.600X0.900*%
%ADD47C,0.500*%
%ADD48C,0.250*%
%ADD49C,0.350*%
D13*
X25125Y10250D02*
Y17131D01*
X23125Y8250D02*
X25125Y10250D01*
X8500Y10125D02*
X11250Y7375D01*
X8500Y10125D02*
Y15475D01*
X12750Y2733D02*
Y3625D01*
Y2733D02*
X14812Y671D01*
X16205D01*
X21337Y5803D01*
Y12793D01*
X20855Y13275D02*
X21337Y12793D01*
X20855Y13275D02*
Y13855D01*
X11250Y7375D02*
X17500D01*
X11039Y6921D02*
X18079D01*
X10783Y6467D02*
X17891D01*
X18079Y6921D02*
X19375Y5625D01*
X17891Y6467D02*
X19233Y5125D01*
X16017Y1125D02*
X20835Y5943D01*
X19233Y5125D02*
X19375D01*
X20835Y5943D02*
Y12585D01*
X15000Y1125D02*
X16017D01*
X6750Y11210D02*
X11039Y6921D01*
X6750Y10500D02*
X10783Y6467D01*
X6750Y11210D02*
Y12250D01*
D44*
X23000Y18935D02*
D03*
Y17665D02*
D03*
Y16395D02*
D03*
Y13855D02*
D03*
Y15125D02*
D03*
D45*
Y12585D02*
D03*
D46*
X1325Y8875D02*
D03*
Y15475D02*
D03*
D47*
X25125Y17131D02*
D03*
X23125Y8250D02*
D03*
X15250Y3375D02*
D03*
Y4375D02*
D03*
Y5375D02*
D03*
X16250Y3375D02*
D03*
Y4375D02*
D03*
Y5375D02*
D03*
X17250Y3375D02*
D03*
Y4375D02*
D03*
Y5375D02*
D03*
D48*
X19375Y5625D02*
D03*
X15000Y1125D02*
D03*
X12750Y3625D02*
D03*
X17500Y7375D02*
D03*
X19375Y5125D02*
D03*
D49*
X8500Y15475D02*
D03*
X6750Y12250D02*
D03*
X20835Y12585D02*
D03*
X20855Y13855D02*
D03*
X6750Y10500D02*
D03*
M02*
